<?xml version="1.0" encoding="utf-8"?>
<!-- Generator: Adobe Illustrator 25.4.1, SVG Export Plug-In . SVG Version: 6.00 Build 0)  -->
<svg version="1.1" id="Ebene_1" xmlns="http://www.w3.org/2000/svg" xmlns:xlink="http://www.w3.org/1999/xlink" x="0px" y="0px"
	 viewBox="0 0 103.1 88.3" style="enable-background:new 0 0 103.1 88.3;" xml:space="preserve">
<style type="text/css">
	.st0{fill:#76B837;}
</style>
<path class="st0" d="M24.6,19.6H0v68.8h4.9c0-10.8,8.8-19.6,19.6-19.6c13.6,0,24.6-11,24.6-24.5C49.2,30.6,38.2,19.6,24.6,19.6
	L24.6,19.6z M24.6,63.9C13.8,63.9,5,55.1,5,44.2s8.8-19.6,19.6-19.6s19.6,8.8,19.6,19.6l0,0C44.3,55.1,35.5,63.9,24.6,63.9
	L24.6,63.9L24.6,63.9z"/>
<path class="st0" d="M103.1,44.2c0-13.6-11-24.6-24.6-24.6c-10.9,0-19.7-8.8-19.7-19.6H54v68.7h4.9V44.2c0-10.8,8.8-19.6,19.6-19.6
	c10.8,0,19.6,8.8,19.6,19.6v24.5h4.9L103.1,44.2L103.1,44.2z"/>
</svg>
